<?xml version="1.0" encoding="UTF-8" standalone="no"?>
<!-- Created with Inkscape (http://www.inkscape.org/) -->

<svg
   xmlns:dc="http://purl.org/dc/elements/1.1/"
   xmlns:cc="http://creativecommons.org/ns#"
   xmlns:rdf="http://www.w3.org/1999/02/22-rdf-syntax-ns#"
   xmlns:svg="http://www.w3.org/2000/svg"
   xmlns="http://www.w3.org/2000/svg"
   xmlns:sodipodi="http://sodipodi.sourceforge.net/DTD/sodipodi-0.dtd"
   xmlns:inkscape="http://www.inkscape.org/namespaces/inkscape"
   width="800"
   height="800"
   id="svg2"
   version="1.1"
   inkscape:version="0.48.4 r9939"
   sodipodi:docname="Class_Druid.svg"
   inkscape:export-filename="C:\dev\SNV_WebGL\RPGMaster\RPGMaster\RPGMaster\Images\Class_Druid.png"
   inkscape:export-xdpi="22.5"
   inkscape:export-ydpi="22.5">
  <defs
     id="defs4" />
  <sodipodi:namedview
     id="base"
     pagecolor="#ffffff"
     bordercolor="#666666"
     borderopacity="1.0"
     inkscape:pageopacity="0.0"
     inkscape:pageshadow="2"
     inkscape:zoom="0.35"
     inkscape:cx="-254.43607"
     inkscape:cy="387.88265"
     inkscape:document-units="px"
     inkscape:current-layer="layer1"
     showgrid="false"
     inkscape:window-width="1280"
     inkscape:window-height="660"
     inkscape:window-x="-8"
     inkscape:window-y="-8"
     inkscape:window-maximized="1" />
  <metadata
     id="metadata7">
    <rdf:RDF>
      <cc:Work
         rdf:about="">
        <dc:format>image/svg+xml</dc:format>
        <dc:type
           rdf:resource="http://purl.org/dc/dcmitype/StillImage" />
        <dc:title></dc:title>
      </cc:Work>
    </rdf:RDF>
  </metadata>
  <g
     inkscape:label="Layer 1"
     inkscape:groupmode="layer"
     id="layer1"
     transform="translate(0,-252.36218)">
    <path
       style="fill:none;stroke:#323232;stroke-width:20;stroke-linecap:butt;stroke-linejoin:miter;stroke-miterlimit:4;stroke-opacity:0.78431373;stroke-dasharray:none"
       d="M 142.85715,986.6479 C 160,975.21933 205.71429,920.93361 234.28572,892.36218 c 28.57143,-28.57142 68.57143,-120 80,-154.28571 11.42857,-34.28571 22.85714,-85.71429 22.85714,-120 -20,8.57143 -62.85714,22.85714 -74.28571,37.14286 -11.42857,14.28571 -37.14286,42.85714 -57.14286,42.85714 -20,0 -31.42857,-22.85714 -28.57143,-40 2.85714,-17.14286 8.57143,-48.57143 8.57143,-48.57143 l -37.14286,-17.14286 c 0,0 -40,-8.57142 -48.571434,-22.85714 -8.57142,-14.28571 -5.71428,-37.14286 0,-48.57143 5.714294,-11.42857 40.000004,-60 31.428584,-71.42857 -8.57143,-11.42857 -34.285724,-34.28571 -40.000004,-45.71428 -5.71429,-11.42858 17.142854,-48.57144 34.285714,-65.71429 17.14286,-17.14286 54.28571,-51.42858 80,-31.42858 25.71429,20 25.71429,62.85715 51.42857,40 25.71429,-22.85714 28.57143,-25.71428 54.28572,-48.57142 25.71428,-22.85715 54.28571,-34.28572 74.28571,0 20,34.28571 31.42857,65.71428 45.71429,68.57142 14.28571,2.85715 42.85714,-5.71428 71.42857,-37.14285 28.57143,-31.42857 62.85714,-60 74.28571,-45.71429 11.42857,14.28572 17.14286,37.14286 17.14286,71.42857 0,34.28572 28.57143,22.85715 57.14286,5.71429 28.57142,-17.14286 68.57142,-40 82.85714,-17.14286 14.28571,22.85714 20,57.14286 11.42857,80.00001 -8.57143,22.85714 -31.42857,102.85714 -42.85714,114.28571 -11.42857,11.42857 -54.28572,45.71429 -57.14286,57.14286 -2.85714,11.42857 62.85714,25.71428 62.85714,51.42857 0,25.71428 -8.57143,68.57143 -25.71428,85.71428 -17.14286,17.14286 -60,34.28572 -77.14286,25.71429 -17.14286,-8.57143 -65.71429,-80 -65.71429,-80 0,0 -42.85714,-5.71429 -42.85714,14.28571 5.99319,76.19411 -37.25668,-22.37234 -51.42857,-45.71428 -11.90347,-19.60572 -12.34612,148.9705 8.57143,202.85714 32.12924,82.76958 134.28571,154.28566 134.28571,154.28566"
       id="path4327"
       inkscape:connector-curvature="0"
       sodipodi:nodetypes="csscsssccsssssssssssssssssssssccssc" />
    <path
       style="fill:none;stroke:#323232;stroke-width:20;stroke-linecap:butt;stroke-linejoin:miter;stroke-miterlimit:4;stroke-opacity:0.78431373;stroke-dasharray:none"
       d="m 234.28572,1009.505 c 17.14286,-11.42853 91.42857,-88.57139 102.85714,-88.57139 11.42857,0 100,74.28572 100,74.28572"
       id="path4329"
       inkscape:connector-curvature="0" />
  </g>
</svg>
