<?xml version="1.0" encoding="UTF-8" standalone="no"?>
<!-- Created with Inkscape (http://www.inkscape.org/) -->

<svg
   xmlns:dc="http://purl.org/dc/elements/1.1/"
   xmlns:cc="http://creativecommons.org/ns#"
   xmlns:rdf="http://www.w3.org/1999/02/22-rdf-syntax-ns#"
   xmlns:svg="http://www.w3.org/2000/svg"
   xmlns="http://www.w3.org/2000/svg"
   xmlns:sodipodi="http://sodipodi.sourceforge.net/DTD/sodipodi-0.dtd"
   xmlns:inkscape="http://www.inkscape.org/namespaces/inkscape"
   width="800"
   height="800"
   id="svg2"
   version="1.1"
   inkscape:version="0.48.4 r9939"
   sodipodi:docname="Class_Cleric.svg"
   inkscape:export-filename="C:\dev\SNV_WebGL\RPGMaster\RPGMaster\RPGMaster\Images\Class_Cleric.png"
   inkscape:export-xdpi="22.5"
   inkscape:export-ydpi="22.5">
  <defs
     id="defs4" />
  <sodipodi:namedview
     id="base"
     pagecolor="#ffffff"
     bordercolor="#666666"
     borderopacity="1.0"
     inkscape:pageopacity="0.0"
     inkscape:pageshadow="2"
     inkscape:zoom="0.35"
     inkscape:cx="-254.43607"
     inkscape:cy="387.88265"
     inkscape:document-units="px"
     inkscape:current-layer="layer1"
     showgrid="false"
     inkscape:window-width="1280"
     inkscape:window-height="660"
     inkscape:window-x="-8"
     inkscape:window-y="-8"
     inkscape:window-maximized="1" />
  <metadata
     id="metadata7">
    <rdf:RDF>
      <cc:Work
         rdf:about="">
        <dc:format>image/svg+xml</dc:format>
        <dc:type
           rdf:resource="http://purl.org/dc/dcmitype/StillImage" />
        <dc:title></dc:title>
      </cc:Work>
    </rdf:RDF>
  </metadata>
  <g
     inkscape:label="Layer 1"
     inkscape:groupmode="layer"
     id="layer1"
     transform="translate(0,-252.36218)">
    <path
       style="fill:none;stroke:#323232;stroke-width:20;stroke-linecap:butt;stroke-linejoin:miter;stroke-miterlimit:4;stroke-opacity:0.78431373;stroke-dasharray:none"
       d="m 91.428573,940.93361 c 2.85714,-11.42857 277.142857,-262.85714 277.142857,-262.85714 0,0 113.79827,34.89599 140,28.57143 C 591.42857,686.64789 628.92374,600.91022 625.71428,555.21933 621.08408,489.30242 597.14285,460.93361 580,432.36218 c -17.14286,-28.57143 -131.42857,-60 -154.28572,-57.14285 -22.85714,2.85714 -142.85714,57.14285 -157.14285,74.28571 -14.28572,17.14286 85.31828,-115.78619 154.28571,-142.85714 31.96437,-12.54659 102.85714,-11.42858 102.85714,-11.42858 0,0 80,28.57143 102.85715,40 151.58815,99.39401 122.10604,369.16614 11.42856,440.00001 -17.14285,8.57143 -105.71428,11.42857 -134.28571,11.42857 -28.57142,0 -60,0 -105.71428,22.85714 -45.71429,22.85714 -240,194.28566 -240,194.28566"
       id="path4331"
       inkscape:connector-curvature="0"
       sodipodi:nodetypes="ccsssssscccssc" />
  </g>
</svg>
