<?xml version="1.0" encoding="UTF-8" standalone="no"?>
<!-- Created with Inkscape (http://www.inkscape.org/) -->

<svg
   xmlns:dc="http://purl.org/dc/elements/1.1/"
   xmlns:cc="http://creativecommons.org/ns#"
   xmlns:rdf="http://www.w3.org/1999/02/22-rdf-syntax-ns#"
   xmlns:svg="http://www.w3.org/2000/svg"
   xmlns="http://www.w3.org/2000/svg"
   xmlns:sodipodi="http://sodipodi.sourceforge.net/DTD/sodipodi-0.dtd"
   xmlns:inkscape="http://www.inkscape.org/namespaces/inkscape"
   width="800"
   height="800"
   id="svg2"
   version="1.1"
   inkscape:version="0.48.4 r9939"
   sodipodi:docname="Halfling_Icon.svg">
  <defs
     id="defs4" />
  <sodipodi:namedview
     id="base"
     pagecolor="#ffffff"
     bordercolor="#666666"
     borderopacity="1.0"
     inkscape:pageopacity="0.0"
     inkscape:pageshadow="2"
     inkscape:zoom="0.49497475"
     inkscape:cx="41.702974"
     inkscape:cy="338.74673"
     inkscape:document-units="px"
     inkscape:current-layer="layer1"
     showgrid="false"
     inkscape:window-width="1280"
     inkscape:window-height="660"
     inkscape:window-x="-8"
     inkscape:window-y="-8"
     inkscape:window-maximized="1" />
  <metadata
     id="metadata7">
    <rdf:RDF>
      <cc:Work
         rdf:about="">
        <dc:format>image/svg+xml</dc:format>
        <dc:type
           rdf:resource="http://purl.org/dc/dcmitype/StillImage" />
        <dc:title></dc:title>
      </cc:Work>
    </rdf:RDF>
  </metadata>
  <g
     inkscape:label="Layer 1"
     inkscape:groupmode="layer"
     id="layer1"
     transform="translate(0,-252.36218)">
    <path
       style="fill:none;stroke:#323232;stroke-width:20;stroke-linecap:butt;stroke-linejoin:miter;stroke-miterlimit:4;stroke-opacity:0.78431374;stroke-dasharray:none"
       d="m 428.57143,60 c 0,25.714286 -2.85714,122.85714 -2.85714,145.71429 0,22.85714 14.28571,108.57142 8.57143,125.71428 -5.71429,17.14285 -24.53082,44.18418 -57.14286,62.85714 -25.88638,14.82199 -75.61275,31.42857 -110.2451,50.10153 -26.25612,14.15669 -67.87817,42.85714 -99.30674,54.28571 -31.42858,11.42858 -76.162448,9.89847 -84.733877,44.18419 -8.571428,34.28571 5.714283,42.85715 22.857147,48.57143 17.14285,5.71428 69.26468,-17.83611 69.26468,-17.83611 0,0 -57.14285,23.28787 -58.32632,38.75705 -0.89863,11.74598 27.18491,20.49021 27.18491,20.49021 l 53.3053,-18.46991 -38.52938,36.93981 c 0,0 20.69326,30.44815 34.97898,21.87673 14.28571,-8.57143 61.87672,-31.7752 61.87672,-31.7752 0,0 -21.24294,27.73459 -38.3858,39.16316 -17.14286,11.42857 -4.60828,20.38152 10.44816,29.06164 9.06163,5.22408 29.55006,-7.13292 42.85714,-16.30602 19.5098,-13.44888 19.30674,-40 30.73531,-25.71429 11.42857,14.28572 -27.30385,23.89704 -33.01814,41.0399 -5.71428,17.14285 7.10081,27.38796 18.52938,21.67367 11.42857,-5.71428 20.83684,-6.06092 32.26541,-20.34663 11.42857,-14.28572 71.43765,-40.2609 93.50834,-57.71717 40.96853,-32.40304 58.89685,-43.84798 98.87602,-55.26613 40.00118,-11.42445 77.28643,-14.14214 105.85786,-25.57071 28.57143,-11.42857 58.91758,-26.63983 75.81581,-49.40826 17.89857,-24.11629 7.53154,-54.08266 -3.5504,-75.26613 -11.23796,-21.48171 -33.73604,-33.44888 -46.00144,-48.08122 -10.70231,-12.76761 -18.96012,-42.22336 -21.81726,-116.50908 -2.85715,-74.28571 1.67367,-196.449594 1.67367,-219.306737"
       id="path3837"
       inkscape:connector-curvature="0"
       transform="translate(0,252.36218)"
       sodipodi:nodetypes="cssssssscscccscssssssssssssssc" />
    <path
       style="fill:none;stroke:#323232;stroke-width:20;stroke-linecap:butt;stroke-linejoin:miter;stroke-miterlimit:4;stroke-opacity:0.78431374;stroke-dasharray:none"
       d="M 272.74119,547.46186 C 274.7615,527.25882 238.396,492.91363 244.45692,480.7918"
       id="path3839"
       inkscape:connector-curvature="0"
       transform="translate(0,252.36218)"
       sodipodi:nodetypes="cc" />
    <path
       style="fill:none;stroke:#323232;stroke-width:20;stroke-linecap:butt;stroke-linejoin:miter;stroke-opacity:0.78431374;stroke-miterlimit:4;stroke-dasharray:none"
       d="m 311.12698,511.09637 c -10.10152,-22.22335 -4.04061,-28.28427 -16.16244,-40.4061 -12.12183,-12.12183 -20.20305,-26.26397 -40.4061,-36.36549"
       id="path3841"
       inkscape:connector-curvature="0"
       transform="translate(0,252.36218)" />
    <path
       style="fill:none;stroke:#323232;stroke-width:20;stroke-linecap:butt;stroke-linejoin:miter;stroke-opacity:0.78431374;stroke-miterlimit:4;stroke-dasharray:none"
       d="m 349.51278,492.91363 c -4.04061,-28.28427 -8.08122,-28.28427 -4.04061,-50.50763 4.04061,-22.22336 4.04061,-50.50763 10.10153,-62.62946"
       id="path3843"
       inkscape:connector-curvature="0"
       transform="translate(0,252.36218)" />
    <path
       style="fill:none;stroke:#323232;stroke-width:20;stroke-linecap:butt;stroke-linejoin:miter;stroke-opacity:0.78431374;stroke-miterlimit:4;stroke-dasharray:none"
       d="M 432.34529,466.64966 C 418.20315,450.48722 420.22346,450.48722 406.08132,432.30447 391.93919,414.12173 385.87827,401.9999 375.77675,393.91868"
       id="path3845"
       inkscape:connector-curvature="0"
       transform="translate(0,252.36218)" />
    <path
       style="fill:none;stroke:#323232;stroke-width:20;stroke-linecap:butt;stroke-linejoin:miter;stroke-miterlimit:4;stroke-opacity:0.78431374;stroke-dasharray:none"
       d="M 379.81735,547.46186 C 351.53308,513.11667 357.594,527.25881 341.43156,511.09637 325.26912,494.93393 303.04576,492.91363 288.90363,484.83241"
       id="path3847"
       inkscape:connector-curvature="0"
       transform="translate(0,252.36218)"
       sodipodi:nodetypes="csc" />
    <path
       style="fill:none;stroke:#323232;stroke-width:20;stroke-linecap:butt;stroke-linejoin:miter;stroke-opacity:0.78431374;stroke-miterlimit:4;stroke-dasharray:none"
       d="m 418.20315,541.40095 c 4.04061,-34.34519 12.12183,-60.60915 20.20305,-72.73098 8.08122,-12.12184 12.12183,-28.28428 22.22336,-40.40611"
       id="path3849"
       inkscape:connector-curvature="0"
       transform="translate(0,252.36218)" />
    <path
       style="fill:none;stroke:#323232;stroke-width:20;stroke-linecap:butt;stroke-linejoin:miter;stroke-opacity:0.78431374;stroke-miterlimit:4;stroke-dasharray:none"
       d="M 484.87322,525.23851 C 470.73109,496.95424 458.60926,492.91363 444.46712,482.8121 430.32498,472.71058 410.12193,460.58874 402.04071,450.48722"
       id="path3851"
       inkscape:connector-curvature="0"
       transform="translate(0,252.36218)" />
    <path
       style="fill:none;stroke:#323232;stroke-width:20;stroke-linecap:butt;stroke-linejoin:miter;stroke-miterlimit:4;stroke-opacity:0.78431374;stroke-dasharray:none"
       d="M 325.26912,852.35197 C 303.04576,834.16923 303.04576,844.27075 280.8224,830.12862"
       id="path3853"
       inkscape:connector-curvature="0" />
    <path
       style="fill:none;stroke:#323232;stroke-width:20;stroke-linecap:butt;stroke-linejoin:miter;stroke-miterlimit:4;stroke-opacity:0.78431374;stroke-dasharray:none"
       d="m 234.35539,555.54308 c -2.0203,-30.30458 0,-22.22335 -30.30458,-48.48732"
       id="path3855"
       inkscape:connector-curvature="0"
       transform="translate(0,252.36218)"
       sodipodi:nodetypes="cc" />
    <path
       style="fill:none;stroke:#323232;stroke-width:20;stroke-linecap:butt;stroke-linejoin:miter;stroke-opacity:0.78431374;stroke-miterlimit:4;stroke-dasharray:none"
       d="m 385.87827,515.13698 c 12.12183,-50.50762 8.08122,-52.52793 24.24366,-78.7919"
       id="path3857"
       inkscape:connector-curvature="0"
       transform="translate(0,252.36218)" />
    <path
       style="fill:none;stroke:#323232;stroke-width:20;stroke-linecap:butt;stroke-linejoin:miter;stroke-opacity:0.78431374;stroke-miterlimit:4;stroke-dasharray:none"
       d="m 482.85292,464.62936 c 6.06091,-48.48733 12.12183,-56.56855 22.22335,-68.69038"
       id="path3863"
       inkscape:connector-curvature="0"
       transform="translate(0,252.36218)" />
    <path
       style="fill:none;stroke:#323232;stroke-width:20;stroke-linecap:butt;stroke-linejoin:miter;stroke-opacity:0.78431374;stroke-miterlimit:4;stroke-dasharray:none"
       d="M 464.67017,412.10142 C 438.4062,383.81715 434.36559,385.83746 412.14224,373.71563"
       id="path3865"
       inkscape:connector-curvature="0"
       transform="translate(0,252.36218)" />
    <path
       style="fill:none;stroke:#323232;stroke-width:20;stroke-linecap:butt;stroke-linejoin:miter;stroke-opacity:0.78431374;stroke-miterlimit:4;stroke-dasharray:none"
       d="m 363.65492,589.88827 c 0,-38.3858 -8.08122,-42.42641 6.06091,-62.62946"
       id="path3867"
       inkscape:connector-curvature="0"
       transform="translate(0,252.36218)" />
    <path
       style="fill:none;stroke:#323232;stroke-width:20;stroke-linecap:butt;stroke-linejoin:miter;stroke-opacity:0.78431374;stroke-miterlimit:4;stroke-dasharray:none"
       d="M 333.35034,559.58369 C 319.2082,537.36034 301.02546,533.31973 286.88332,509.07607"
       id="path3869"
       inkscape:connector-curvature="0"
       transform="translate(0,252.36218)" />
  </g>
</svg>
